<svg width="100" height="100" viewBox="0 0 100 100" fill="none" xmlns="http://www.w3.org/2000/svg">
<path d="M43.0987 5.9978C47.3254 3.33406 52.6746 3.33407 56.9013 5.99781L70.2451 14.4074L84.0919 21.9323C88.478 24.3159 91.1526 29.0182 90.9933 34.0655L90.4901 50L90.9933 65.9346C91.1526 70.9818 88.478 75.6841 84.092 78.0676L70.2451 85.5926L56.9013 94.0022C52.6746 96.6659 47.3253 96.6659 43.0987 94.0022L29.7549 85.5926L15.908 78.0676C11.522 75.6841 8.84737 70.9818 9.00675 65.9345L9.5099 50L9.00675 34.0654C8.84737 29.0182 11.522 24.3159 15.908 21.9323L29.7549 14.4074L43.0987 5.9978Z" fill="#6D0475"/>
<path d="M43.9184 31.2434C46.2003 25.8013 53.7997 25.8013 56.0816 31.2434C57.2345 33.9929 60.04 35.6371 62.9623 35.2757C68.7464 34.5606 72.5461 41.2408 69.0439 45.9677C67.2744 48.3559 67.2744 51.6441 69.0439 54.0323C72.5461 58.7592 68.7464 65.4394 62.9623 64.7243C60.04 64.3629 57.2345 66.0071 56.0816 68.7566C53.7997 74.1987 46.2003 74.1987 43.9184 68.7566C42.7655 66.0071 39.96 64.3629 37.0377 64.7243C31.2536 65.4394 27.4539 58.7592 30.9561 54.0323C32.7256 51.6441 32.7256 48.3559 30.9561 45.9677C27.4539 41.2408 31.2536 34.5606 37.0377 35.2757C39.96 35.6371 42.7655 33.9929 43.9184 31.2434Z" fill="white"/>
<path d="M47.4636 41.627C48.0442 38.8454 51.9558 38.8454 52.5364 41.627C52.8557 43.1567 54.4109 44.068 55.8756 43.5839C58.5392 42.7035 60.495 46.1419 58.412 48.0431C57.2666 49.0887 57.2666 50.9113 58.412 51.9569C60.495 53.8581 58.5392 57.2965 55.8756 56.4161C54.4109 55.932 52.8557 56.8433 52.5364 58.373C51.9558 61.1546 48.0442 61.1546 47.4636 58.373C47.1443 56.8433 45.5892 55.932 44.1244 56.4161C41.4608 57.2965 39.505 53.8581 41.588 51.9569C42.7334 50.9113 42.7334 49.0887 41.588 48.0431C39.505 46.1419 41.4608 42.7035 44.1244 43.5839C45.5892 44.068 47.1443 43.1567 47.4636 41.627Z" fill="#6D0475"/>
</svg>
